<?xml version="1.0" encoding="UTF-8" standalone="no"?><!DOCTYPE svg PUBLIC "-//W3C//DTD SVG 1.1//EN" "http://www.w3.org/Graphics/SVG/1.1/DTD/svg11.dtd"><svg width="100%" height="100%" viewBox="0 0 830 523" version="1.1" xmlns="http://www.w3.org/2000/svg" xmlns:xlink="http://www.w3.org/1999/xlink" xml:space="preserve" xmlns:serif="http://www.serif.com/" style="fill-rule:evenodd;clip-rule:evenodd;stroke-linejoin:round;stroke-miterlimit:2;"><g id="Capa-3" serif:id="Capa 3"><path d="M239.289,18.453l-16.927,43.129l27.608,47.825l-17.027,-17.329l-24.081,3.955l-54.996,140.569l162.159,-22.368l42.724,-127.842l-28.977,-1.422l-24.646,23.835l21.05,-46.61l36.55,12.135l13.377,-40.943l-65.454,-7.116l-47.537,118.418l19.43,15.944l41.962,-51.38l-23.902,62.223l-85.917,6.831l19.054,-57.725l22.471,18.435l12.227,-31.561l-13.96,-50.492l29.103,11.327l17.787,-42.805l-62.078,-7.033Z" style="fill:#e41378;fill-rule:nonzero;"/><path d="M715.408,70.585l-52.361,-5.749l-23.572,105.06l54.197,-7.435l7.943,-33.638l-31.503,6.669l9.524,-44.613l11.234,1.241l-8.573,30.795l20.967,-1.252l12.144,-51.078Z" style="fill:#e41378;fill-rule:nonzero;"/><path d="M735.568,138.135l38.227,-17.578l-22.723,-23.686l53.967,13.142l24.639,-26.862l-107.71,-11.826l-5.332,22.544l32.422,21.994l-40.04,10.205l-8.365,35.445l89.763,-12.306l30.044,-26.471l-84.892,15.399Z" style="fill:#e41378;fill-rule:nonzero;"/><path d="M457.773,241.382c1.262,-38.771 -39.427,-32.119 -56.85,-29.761l-76.758,11.228l-18.019,57.298c-0,0 72.107,-15.748 87.997,-19.086c11.465,-2.407 15.807,0.491 17.061,5.21c1.426,5.364 -3.828,11.85 -10.443,17.126c-4.835,3.855 -75.42,60.931 -94.07,75.67c-56.327,44.511 -49.84,99.681 -49.84,99.681l149.981,-62.562l17.839,-56.49l-74.029,28.672c6.561,-15.124 105.505,-77.063 107.131,-126.986" style="fill:#e41378;fill-rule:nonzero;"/><path d="M362.625,425.409l-102.523,44.271c0.006,0.015 0.01,0.032 0.015,0.048c15.133,46.434 66.941,52.553 67.715,52.642l213.7,-115.96l16.542,-65.4l-195.449,84.399Z" style="fill:#e41378;fill-rule:nonzero;"/><path d="M782.983,155.75l-69.36,10.143l-28.9,30.96l-23.687,-23.273l-23.132,3.386l27.15,40.958l-48.244,51.682l-9.23,42.656l75.407,-67.286l25.908,39.083l-10.167,-3.615l-92.974,39.949l-1.616,7.221l9.421,-3.574l-10.814,9.799l-1.85,8.263l14.918,-6.491l-17.538,18.196l-5.558,24.831l178.466,-96.85l-61.616,-60.529l73.416,-65.509Z" style="fill:#e41378;fill-rule:nonzero;"/><path d="M141.918,47.952l36.476,2.917l-45.881,33.792l16.185,-32.073l-6.78,-4.636Zm148.061,198.961l16.424,-2.053l2.645,-8.362l-9.501,-2.299l10.704,-1.598l2.539,-8.088l-176.596,25.829l59.642,-152.163l-52.62,8.674l67.467,-46.529l16.918,-43.175l-156.779,-17.149l-2.492,6.418l9.863,0.991l-11.613,3.515l-3.05,7.856l13.926,1.284l-16.593,5.582l-5.955,15.357l61.741,4.931l-116.649,211.62l76.61,-10.424l39.242,-100.658l-9.738,-3.348l37.715,-3.203l-79.081,192.16l229.719,-49.474l9.896,-31.294l-14.384,-4.4Z" style="fill:#e41378;fill-rule:nonzero;"/><path d="M659.146,50.708l-18.513,-2.605l19.437,-1.414l0.91,-3.971l-13.198,-1.561l14.07,-2.246l3.541,-15.413l-269.17,-16.98l-6.3,18.311l111.47,13.837l-60.496,158.472l32.853,-4.482l49.91,-151.216l133.878,16.268l1.608,-7Z" style="fill:#e41378;fill-rule:nonzero;"/><path d="M394.441,84.856l14.871,-47.787l-22.75,-2.488l-14.72,42.777l22.599,7.498Z" style="fill:#e41378;fill-rule:nonzero;"/><path d="M473.94,83.364l14.078,-37.649l-69.608,-7.645l-30.993,99.379l13.54,12.279l39.807,-37.362l-25.534,50.756l-41.301,2.671l-8.832,15.701l27.257,-89.505l-22.515,-8.82l-44.681,129.818l104.915,-14.376l42.091,-110.643l-22.663,-2.015l-27.209,15.736l11.542,-30.65l40.106,12.325Z" style="fill:#e41378;fill-rule:nonzero;"/><path d="M597.659,209.833l-17.875,74.836l-33.674,13.192l61.529,-116.474l-49.746,7.279l-51.456,166.246l62.265,-26.293l-18.417,73.037l32.307,-17.534l41.326,-179.922l-26.259,5.633Z" style="fill:#e41378;fill-rule:nonzero;"/><path d="M493.862,239.861l17.26,-3.88l-22.909,72.616l6.609,2.658l-38.953,15.468l37.993,-86.862Zm54.376,-49.784l-66.919,9.788l-62.904,191.433l76.33,-31.896l53.493,-169.325Z" style="fill:#e41378;fill-rule:nonzero;"/><path d="M537.963,108.942l10.403,-28.446l13.854,1.615l-11.843,26.793l-12.414,0.038Zm-7.513,-58.6l-46.281,140.854l24.964,-3.424l20.198,-55.228l10.76,-0.367l-24.146,54.629l34.824,-4.744l39.552,-125.198l-59.871,-6.522Z" style="fill:#e41378;fill-rule:nonzero;"/><path d="M635.96,61.882l-13.091,52.889l2.416,-54.058l-26.875,-2.942l-38.065,122.978l32.411,-4.442l16.649,-76.374l-1.188,74.028l-0.062,0.246l23.366,-3.219l24.553,-106.905l-20.114,-2.201Z" style="fill:#e41378;fill-rule:nonzero;"/></g></svg>